<mxfile host="drawio-plugin" modified="2022-01-16T22:26:21.402Z" agent="5.0 (Macintosh; Intel Mac OS X 12_1_0) AppleWebKit/537.36 (KHTML, like Gecko) Chrome/89.0.4389.114 Safari/537.36" etag="2xzbj3ut-TdytXZIqrZQ" version="15.5.4" type="embed"><diagram id="W5V7wm7oTTYrFfw-EOOF" name="architecture"><mxGraphModel dx="852" dy="730" grid="1" gridSize="10" guides="1" tooltips="1" connect="1" arrows="1" fold="1" page="1" pageScale="1" pageWidth="1169" pageHeight="827" math="0" shadow="0"><root><mxCell id="0"/><mxCell id="1" parent="0"/><mxCell id="33" value="" style="rounded=0;whiteSpace=wrap;html=1;fontColor=#000000;" vertex="1" parent="1"><mxGeometry x="210" y="20" width="480" height="550" as="geometry"/></mxCell><mxCell id="32" value="" style="rounded=0;whiteSpace=wrap;html=1;fillColor=#bac8d3;align=left;verticalAlign=top;strokeColor=#23445d;fontColor=#000000;" parent="1" vertex="1"><mxGeometry x="240" y="110" width="430" height="430" as="geometry"/></mxCell><mxCell id="31" value="" style="rounded=0;whiteSpace=wrap;html=1;fillColor=#bac8d3;align=left;verticalAlign=top;strokeColor=#23445d;fontColor=#000000;" parent="1" vertex="1"><mxGeometry x="230" y="120" width="430" height="430" as="geometry"/></mxCell><mxCell id="19" value="&amp;nbsp;ServiceRegistry (localhost:8061)" style="rounded=0;whiteSpace=wrap;html=1;fillColor=#bac8d3;align=left;verticalAlign=top;strokeColor=#23445d;fontColor=#000000;" parent="1" vertex="1"><mxGeometry x="220" y="130" width="430" height="430" as="geometry"/></mxCell><mxCell id="5" style="edgeStyle=orthogonalEdgeStyle;rounded=0;orthogonalLoop=1;jettySize=auto;html=1;fontColor=#000000;strokeColor=#FF7373;" parent="1" source="4" target="3" edge="1"><mxGeometry relative="1" as="geometry"/></mxCell><mxCell id="4" value="web" style="ellipse;shape=cloud;whiteSpace=wrap;html=1;align=center;verticalAlign=middle;fillColor=#fad9d5;strokeColor=#ae4132;fontColor=#000000;" parent="1" vertex="1"><mxGeometry x="50" y="275" width="120" height="80" as="geometry"/></mxCell><mxCell id="13" style="edgeStyle=orthogonalEdgeStyle;rounded=0;orthogonalLoop=1;jettySize=auto;html=1;fontColor=#FFFFFF;strokeColor=#FF7373;dashed=1;" parent="1" source="6" target="12" edge="1"><mxGeometry relative="1" as="geometry"><Array as="points"><mxPoint x="580" y="233"/></Array></mxGeometry></mxCell><mxCell id="6" value="DepartmentService&lt;br&gt;(localhost:8280)" style="rounded=0;whiteSpace=wrap;html=1;fillColor=#cdeb8b;align=center;verticalAlign=middle;strokeColor=#36393d;fontColor=#000000;" parent="1" vertex="1"><mxGeometry x="430" y="202.5" width="120" height="60" as="geometry"/></mxCell><mxCell id="9" value="&lt;font&gt;uses&lt;/font&gt;" style="edgeStyle=orthogonalEdgeStyle;rounded=0;orthogonalLoop=1;jettySize=auto;html=1;fontColor=#333333;strokeColor=#333333;labelBackgroundColor=none;" parent="1" source="8" target="6" edge="1"><mxGeometry relative="1" as="geometry"/></mxCell><mxCell id="14" style="edgeStyle=orthogonalEdgeStyle;rounded=0;orthogonalLoop=1;jettySize=auto;html=1;fontColor=#FFFFFF;strokeColor=#FF7373;dashed=1;" parent="1" source="8" target="12" edge="1"><mxGeometry relative="1" as="geometry"><Array as="points"><mxPoint x="600" y="398"/></Array></mxGeometry></mxCell><mxCell id="8" value="UserService&lt;br&gt;(localhost:8281)" style="rounded=0;whiteSpace=wrap;html=1;fillColor=#cdeb8b;align=center;verticalAlign=middle;strokeColor=#36393d;fontColor=#000000;" parent="1" vertex="1"><mxGeometry x="430" y="367.5" width="120" height="60" as="geometry"/></mxCell><mxCell id="12" value="Zipkin&lt;br&gt;(localhost:9411)" style="rounded=1;whiteSpace=wrap;html=1;fillColor=#ffcccc;align=center;verticalAlign=middle;strokeColor=#36393d;fontColor=#000000;" parent="1" vertex="1"><mxGeometry x="530" y="30" width="120" height="60" as="geometry"/></mxCell><mxCell id="28" value="" style="rounded=0;whiteSpace=wrap;html=1;align=center;verticalAlign=middle;fillColor=#fad7ac;strokeColor=#b46504;fontColor=#000000;" parent="1" vertex="1"><mxGeometry x="210" y="164" width="110" height="250" as="geometry"/></mxCell><mxCell id="27" value="" style="rounded=0;whiteSpace=wrap;html=1;align=center;verticalAlign=middle;fillColor=#fad7ac;strokeColor=#b46504;fontColor=#000000;" parent="1" vertex="1"><mxGeometry x="200" y="177.5" width="110" height="250" as="geometry"/></mxCell><mxCell id="3" value="ServiceGateway&lt;br&gt;(localhost:8181)" style="rounded=0;whiteSpace=wrap;html=1;align=center;verticalAlign=middle;fillColor=#fad7ac;strokeColor=#b46504;fontColor=#000000;" parent="1" vertex="1"><mxGeometry x="190" y="190" width="110" height="250" as="geometry"/></mxCell><mxCell id="11" value="&lt;font&gt;/users&lt;/font&gt;" style="edgeStyle=orthogonalEdgeStyle;rounded=0;orthogonalLoop=1;jettySize=auto;html=1;fontColor=#333333;strokeColor=#333333;labelBackgroundColor=none;" parent="1" source="3" target="8" edge="1"><mxGeometry relative="1" as="geometry"/></mxCell><mxCell id="10" value="/departments" style="edgeStyle=orthogonalEdgeStyle;rounded=0;orthogonalLoop=1;jettySize=auto;html=1;entryX=0;entryY=0.5;entryDx=0;entryDy=0;fontColor=#333333;strokeColor=#333333;labelBackgroundColor=none;" parent="1" source="3" target="6" edge="1"><mxGeometry relative="1" as="geometry"/></mxCell><mxCell id="30" value="" style="rounded=0;whiteSpace=wrap;html=1;fillColor=#cce5ff;align=center;verticalAlign=middle;strokeColor=#36393d;fontColor=#000000;" parent="1" vertex="1"><mxGeometry x="310" y="460" width="120" height="60" as="geometry"/></mxCell><mxCell id="29" value="" style="rounded=0;whiteSpace=wrap;html=1;fillColor=#cce5ff;align=center;verticalAlign=middle;strokeColor=#36393d;fontColor=#000000;" parent="1" vertex="1"><mxGeometry x="320" y="470" width="120" height="60" as="geometry"/></mxCell><mxCell id="15" value="ConfigServer&lt;br&gt;(localhost:8881)" style="rounded=0;whiteSpace=wrap;html=1;fillColor=#cce5ff;align=center;verticalAlign=middle;strokeColor=#36393d;fontColor=#000000;" parent="1" vertex="1"><mxGeometry x="330" y="480" width="120" height="60" as="geometry"/></mxCell><mxCell id="22" style="edgeStyle=orthogonalEdgeStyle;rounded=0;orthogonalLoop=1;jettySize=auto;html=1;fontColor=#000000;fillColor=#cce5ff;strokeColor=#004C99;dashed=1;" parent="1" source="6" target="15" edge="1"><mxGeometry relative="1" as="geometry"><Array as="points"><mxPoint x="450" y="300"/><mxPoint x="400" y="300"/></Array></mxGeometry></mxCell><mxCell id="21" style="edgeStyle=orthogonalEdgeStyle;rounded=0;orthogonalLoop=1;jettySize=auto;html=1;fontColor=#000000;fillColor=#cce5ff;strokeColor=#004C99;dashed=1;" parent="1" source="8" target="15" edge="1"><mxGeometry relative="1" as="geometry"><Array as="points"><mxPoint x="490" y="510"/></Array></mxGeometry></mxCell><mxCell id="23" style="edgeStyle=orthogonalEdgeStyle;rounded=0;orthogonalLoop=1;jettySize=auto;html=1;fontColor=#000000;fillColor=#cce5ff;strokeColor=#004C99;dashed=1;" parent="1" source="3" target="15" edge="1"><mxGeometry relative="1" as="geometry"><mxPoint x="460" y="272.5" as="sourcePoint"/><mxPoint x="410" y="490" as="targetPoint"/><Array as="points"><mxPoint x="245" y="510"/></Array></mxGeometry></mxCell></root></mxGraphModel></diagram></mxfile>